<svg version="1.2" xmlns="http://www.w3.org/2000/svg" viewBox="0 0 26 27" width="26" height="27"><style>.a{fill:none;stroke:#000;stroke-width:1.5}.b{fill:#fff;stroke:#000;stroke-width:1.5}</style><path class="a" d="m18.6 21.1l-9.8-7.5 9.8-6.7"/><path class="b" d="m20.5-0.1c2.3 0 4.2 1.9 4.2 4.3 0 2.3-1.9 4.2-4.2 4.2-2.4 0-4.3-1.9-4.3-4.2 0-2.4 1.9-4.3 4.3-4.3z"/><path class="b" d="m20.7 17.7c2.5 0 4.5 2 4.5 4.5 0 2.5-2 4.5-4.5 4.5-2.5 0-4.5-2-4.5-4.5 0-2.5 2-4.5 4.5-4.5z"/><path class="b" d="m5.3 9.3c2.5 0 4.5 2 4.5 4.5 0 2.5-2 4.5-4.5 4.5-2.5 0-4.5-2-4.5-4.5 0-2.5 2-4.5 4.5-4.5z"/></svg>